<svg width="48" height="52" viewBox="0 0 48 52" fill="none" xmlns="http://www.w3.org/2000/svg">
<path d="M24.0001 0.84C22.5862 0.84 21.4401 2.05781 21.4401 3.56V23.2801H2.88007C1.46624 23.2801 0.320068 24.4978 0.320068 26.0001C0.320068 27.5023 1.46624 28.7201 2.88007 28.7201H21.4401V48.44C21.4401 49.9422 22.5862 51.16 24.0001 51.16C25.414 51.16 26.5601 49.9422 26.5601 48.44V28.7201H45.1201C46.5339 28.7201 47.6801 27.5023 47.6801 26.0001C47.6801 24.4978 46.5339 23.2801 45.1201 23.2801H26.5601V3.56C26.5601 2.05781 25.414 0.84 24.0001 0.84Z" fill="white"/>
</svg>
