<svg width="39" height="38" viewBox="0 0 39 38" fill="none" xmlns="http://www.w3.org/2000/svg">
<path d="M34.125 15.8333C34.125 26.9167 19.5 36.4167 19.5 36.4167C19.5 36.4167 4.875 26.9167 4.875 15.8333C4.875 12.054 6.41584 8.42946 9.15856 5.75706C11.9013 3.08467 15.6212 1.58333 19.5 1.58333C23.3788 1.58333 27.0987 3.08467 29.8414 5.75706C32.5842 8.42946 34.125 12.054 34.125 15.8333Z" fill="#FACBCB"/>
<path d="M19.5 20.5833C22.1924 20.5833 24.375 18.4567 24.375 15.8333C24.375 13.21 22.1924 11.0833 19.5 11.0833C16.8076 11.0833 14.625 13.21 14.625 15.8333C14.625 18.4567 16.8076 20.5833 19.5 20.5833Z" fill="#FACBCB"/>
<path d="M34.125 15.8333C34.125 26.9167 19.5 36.4167 19.5 36.4167C19.5 36.4167 4.875 26.9167 4.875 15.8333C4.875 12.054 6.41584 8.42946 9.15856 5.75706C11.9013 3.08467 15.6212 1.58333 19.5 1.58333C23.3788 1.58333 27.0987 3.08467 29.8414 5.75706C32.5842 8.42946 34.125 12.054 34.125 15.8333Z" stroke="#1E1E1E" stroke-width="3" stroke-linecap="round" stroke-linejoin="round"/>
<path d="M19.5 20.5833C22.1924 20.5833 24.375 18.4567 24.375 15.8333C24.375 13.21 22.1924 11.0833 19.5 11.0833C16.8076 11.0833 14.625 13.21 14.625 15.8333C14.625 18.4567 16.8076 20.5833 19.5 20.5833Z" stroke="#1E1E1E" stroke-width="3" stroke-linecap="round" stroke-linejoin="round"/>
</svg>
