<svg width="393" height="140" viewBox="0 0 393 140" fill="none" xmlns="http://www.w3.org/2000/svg">
<path fill-rule="evenodd" clip-rule="evenodd" d="M370.875 50.0953C374.001 45.1937 379.114 42 384.891 42C394.409 42 402.125 50.6694 402.125 61.3631C402.125 62.9399 401.956 64.4706 401.64 65.9376C406.11 69.436 409.036 75.2518 409.036 81.8365C409.036 92.5315 401.321 101.201 391.803 101.201C387.752 101.201 384.028 99.63 381.085 97.0008V113.443L389.137 105.775C391.705 103.334 395.015 107.726 392.447 110.169L381.085 120.987V136.588C381.085 140.381 375.951 140.381 375.951 136.588V131.218L364.59 120.4C362.022 117.957 365.331 113.565 367.899 116.006L375.951 123.674V97.0008C373.009 99.63 369.285 101.201 365.233 101.201C355.716 101.201 348 92.5315 348 81.8365C348 74.5715 351.562 68.2419 356.83 64.9289C356.807 64.584 356.795 64.2356 356.795 63.8848C356.795 56.1981 362.341 49.9666 369.184 49.9666C369.757 49.9666 370.322 50.0115 370.875 50.0953Z" fill="#F5E5AC"/>
<path fill-rule="evenodd" clip-rule="evenodd" d="M17.9053 27.8198C20.61 23.5848 25.0336 20.8254 30.0311 20.8254C38.2662 20.8254 44.9416 28.3158 44.9416 37.5552C44.9416 38.9175 44.7952 40.2401 44.5223 41.5075C48.3893 44.5302 50.9213 49.555 50.9213 55.2442C50.9213 64.4847 44.2459 71.975 36.0117 71.975C32.5066 71.975 29.2844 70.6177 26.7388 68.3461V82.5523L33.7053 75.9273C35.9271 73.818 38.79 77.6131 36.5682 79.7235L26.7388 89.0701V102.55C26.7388 105.826 22.2971 105.826 22.2971 102.55V97.9095L12.4677 88.5629C10.2459 86.4525 13.1088 82.6574 15.3306 84.7667L22.2971 91.3917V68.3461C19.7515 70.6177 16.5293 71.975 13.0242 71.975C4.79003 71.975 -1.88538 64.4847 -1.88538 55.2442C-1.88538 48.9672 1.19586 43.4985 5.75405 40.636C5.73405 40.338 5.72404 40.037 5.72404 39.7339C5.72404 33.0926 10.5223 27.7086 16.442 27.7086C16.9376 27.7086 17.4269 27.7474 17.9053 27.8198Z" fill="#F5E5AC"/>
<path fill-rule="evenodd" clip-rule="evenodd" d="M80.0065 8.57047C82.4654 3.94334 86.4868 0.928467 91.03 0.928467C98.5164 0.928467 104.585 9.11234 104.585 19.2073C104.585 20.6958 104.452 22.1408 104.204 23.5256C107.719 26.8281 110.021 32.3182 110.021 38.5342C110.021 48.6302 103.953 56.8141 96.4669 56.8141C93.2805 56.8141 90.3512 55.3312 88.037 52.8492V68.3707L94.3701 61.1324C96.39 58.8277 98.9927 62.9743 96.9728 65.28L88.037 75.492V90.2197C88.037 93.7998 83.999 93.7998 83.999 90.2197V85.1499L75.0632 74.9379C73.0434 72.6321 75.6461 68.4856 77.6659 70.7902L83.999 78.0286V52.8492C81.6849 55.3312 78.7556 56.8141 75.5692 56.8141C68.0836 56.8141 62.015 48.6302 62.015 38.5342C62.015 31.676 64.8161 25.7009 68.96 22.5734C68.9418 22.2478 68.9327 21.9189 68.9327 21.5877C68.9327 14.3315 73.2947 8.44893 78.6762 8.44893C79.1268 8.44893 79.5716 8.4913 80.0065 8.57047Z" fill="#F5E5AC"/>
</svg>
