<svg width="391" height="242" viewBox="0 0 391 242" fill="none" xmlns="http://www.w3.org/2000/svg">
<path d="M326.788 190.927H354.6V216H364.398V190.927H392.209C397.155 190.927 399.816 186.084 396.587 182.962L376.292 163.334H383.73C387.393 163.334 389.364 159.265 386.972 156.64L371.939 140.146H377.448C380.162 140.146 381.622 136.726 379.85 134.521L361.901 112.181C360.636 110.606 358.363 110.606 357.097 112.181L339.15 134.52C337.378 136.725 338.838 140.145 341.552 140.145H347.061L332.028 156.638C329.636 159.263 331.607 163.332 335.27 163.332H342.708L322.413 182.961C319.184 186.083 321.845 190.926 326.791 190.926L326.788 190.927Z" fill="#F5E5AC"/>
<path d="M331.811 68.5087H354.927V90H363.071V68.5087H386.187C390.298 68.5087 392.509 64.3581 389.825 61.6817L372.957 44.8574H379.139C382.184 44.8574 383.822 41.37 381.834 39.1196L369.339 24.982H373.918C376.173 24.982 377.387 22.051 375.915 20.161L360.995 1.0125C359.944 -0.337502 358.055 -0.337502 357.003 1.0125L342.085 20.16C340.613 22.05 341.827 24.981 344.082 24.981H348.661L336.166 39.1186C334.178 41.3679 335.816 44.8564 338.861 44.8564H345.043L328.175 61.6807C325.491 64.3571 327.702 68.5077 331.813 68.5077L331.811 68.5087Z" fill="#F5E5AC"/>
<path d="M7.36711 210.241H42.7639V242H55.2333V210.241H90.63C96.9244 210.241 100.311 204.107 96.2014 200.152L70.3719 175.289H79.8383C84.5005 175.289 87.0091 170.136 83.9649 166.81L64.8318 145.918H71.8435C75.2969 145.918 77.1549 141.587 74.9005 138.794L52.0556 110.496C50.4461 108.501 47.5525 108.501 45.9416 110.496L23.0995 138.792C20.8451 141.585 22.7032 145.916 26.1565 145.916H33.1682L14.0351 166.809C10.9909 170.133 13.4995 175.288 18.1617 175.288H27.6281L1.79864 200.15C-2.31096 204.105 1.07559 210.239 7.36995 210.239L7.36711 210.241Z" fill="#F5E5AC"/>
<path d="M21.8864 66.9863H45.3638V88H53.6343V66.9863H77.1118C81.2866 66.9863 83.5328 62.9279 80.807 60.311L63.6752 43.8606H69.954C73.0462 43.8606 74.7101 40.4507 72.691 38.2503L60.0007 24.4269H64.6513C66.9418 24.4269 68.1742 21.561 66.6789 19.713L51.5266 0.990005C50.4591 -0.330002 48.5399 -0.330002 47.4715 0.990005L32.3211 19.712C30.8258 21.56 32.0582 24.4259 34.3487 24.4259H38.9993L26.309 38.2493C24.2899 40.4487 25.9538 43.8596 29.046 43.8596H35.3248L18.193 60.31C15.4672 62.9269 17.7134 66.9853 21.8882 66.9853L21.8864 66.9863Z" fill="#F5E5AC"/>
</svg>
